<svg id="Component_1_1" data-name="Component 1 – 1" xmlns="http://www.w3.org/2000/svg" width="95" height="135" viewBox="0 0 95 135">
  <g id="Rectangle_74" data-name="Rectangle 74" fill="rgba(78,193,180,0.8)" stroke="#fff" stroke-width="6">
    <rect width="95" height="135" rx="47.5" stroke="none"/>
    <rect x="3" y="3" width="89" height="129" rx="44.5" fill="none"/>
  </g>
  <g id="fast-forward" transform="translate(20.855 -17.151)">
    <g id="Group_429" data-name="Group 429" transform="translate(24.391 64.013)">
      <g id="Group_428" data-name="Group 428" transform="translate(0 0)">
        <path id="Path_112" data-name="Path 112" d="M239.417,83.4,222.531,64.636a1.878,1.878,0,0,0-1.4-.623H209.878a1.875,1.875,0,0,0-1.4,3.13l15.756,17.509-15.756,17.5a1.878,1.878,0,0,0,1.4,3.133h11.257a1.9,1.9,0,0,0,1.4-.619l16.886-18.762A1.877,1.877,0,0,0,239.417,83.4Z" transform="translate(-208 -64.013)" fill="#fff"/>
      </g>
    </g>
    <g id="Group_431" data-name="Group 431" transform="translate(0 64.013)">
      <g id="Group_430" data-name="Group 430" transform="translate(0 0)">
        <path id="Path_113" data-name="Path 113" d="M31.417,83.4,14.531,64.636a1.878,1.878,0,0,0-1.4-.623H1.878a1.875,1.875,0,0,0-1.4,3.13L16.239,84.651.482,102.156a1.878,1.878,0,0,0,1.4,3.133H13.136a1.9,1.9,0,0,0,1.4-.619L31.417,85.908A1.877,1.877,0,0,0,31.417,83.4Z" transform="translate(0 -64.013)" fill="#fff"/>
      </g>
    </g>
  </g>
</svg>
