<svg xmlns="http://www.w3.org/2000/svg" width="472.969" height="121.934" viewBox="0 0 472.969 121.934">
  <path id="Path_132" data-name="Path 132" d="M42.363,94.715V40.223q0-18.75-18.457-18.75T5.449,40.223V94.715q0,18.75,18.457,18.75Q42.363,113.406,42.363,94.715Zm-12.832,0q0,6.035-5.625,6.035t-5.625-6.035V40.223q0-6.035,5.566-6.035h.059q5.625,0,5.625,6.035Zm18.281-88.3V128.348H0V6.414Zm42.832,88.3V22.879H77.813V94.715q0,6.035-5.684,6.035-5.566,0-5.566-6.035V22.879H53.73V94.715q0,18.75,18.4,18.75Q90.645,113.406,90.645,94.715Zm5.918-88.3V128.348H47.813V6.414Zm6.387,16.465V112h12.832V73.035l1.641-.234L128.965,112h14.121L128.613,70.516q10.137-3.691,10.137-15.469V41.688q0-18.75-17.109-18.809Zm17.344,12.715q5.625,0,5.625,6.094V55.047q0,4.277-3.516,5.684a12.85,12.85,0,0,1-3.691.352h-2.93V35.594ZM144.9,6.414V128.348H96.563V6.414Zm25.664,0V128.348H144.9V6.414ZM192.422,51.18V36.414h-5.391l3.105-13.535h-7.383l-6.27,17.988V51.18ZM219.2,6.414V128.348H170.566V6.414Zm-6.328,44.707V36.355H207.48l3.105-13.477H203.2l-6.27,17.93V51.121Zm61.523,40.43-9.082-68.672H252.6l-9.082,68.672-9.082-68.672H221.484l4.16,31.523,9.082,57.6h17.637l6.621-46,6.68,46H283.3l9.023-57.48,4.16-31.641H283.477ZM298.77,6.414V128.348H219.2V6.414Zm6.387,16.465V112h12.832V73.8H329.18V112H342.07V22.879H329.18v38.2H317.988v-38.2ZM348.4,6.414V128.348H298.77V6.414Zm15.879,16.465H350.684L366.27,73.445l.41,1.113V112h12.832V74.559l.352-1.113,15.586-50.566H381.8l-8.73,34.746ZM397.734,6.414V128.348H348.4V6.414Zm26.6,0V128.348h-26.6V6.414ZM426.7,22.879V37.645h5.332L428.93,51.18h7.441l6.27-17.988V22.879ZM472.969,6.414V128.348H424.336V6.414ZM406.254,22.938V37.7h5.332L408.48,51.18h7.441l6.27-17.93V22.938Z" transform="translate(0 -6.414)" fill="#fff"/>
</svg>
